<?xml version="1.0" encoding="UTF-8" standalone="no"?>
<!-- Created with Inkscape (http://www.inkscape.org/) -->

<svg
   xmlns:dc="http://purl.org/dc/elements/1.1/"
   xmlns:cc="http://creativecommons.org/ns#"
   xmlns:rdf="http://www.w3.org/1999/02/22-rdf-syntax-ns#"
   xmlns:svg="http://www.w3.org/2000/svg"
   xmlns="http://www.w3.org/2000/svg"
   xmlns:sodipodi="http://sodipodi.sourceforge.net/DTD/sodipodi-0.dtd"
   xmlns:inkscape="http://www.inkscape.org/namespaces/inkscape"
   width="121.97272mm"
   height="17.163826mm"
   viewBox="0 0 121.97272 17.163826"
   version="1.1"
   id="svg10166"
   inkscape:version="0.92.3 (2405546, 2018-03-11)"
   sodipodi:docname="LetteringLogo+Black+Green.svg">
  <defs
     id="defs10160">
    <clipPath
       clipPathUnits="userSpaceOnUse"
       id="clipPath3729-2-3-7">
      <path
         d="M 0,311.443 H 406.567 V 0 H 0 Z"
         id="path3727-4-5-8"
         inkscape:connector-curvature="0" />
    </clipPath>
    <clipPath
       clipPathUnits="userSpaceOnUse"
       id="clipPath3789-0-0-0">
      <path
         d="M 0,311.443 H 406.567 V 0 H 0 Z"
         id="path3787-3-5-0"
         inkscape:connector-curvature="0" />
    </clipPath>
  </defs>
  <sodipodi:namedview
     id="base"
     pagecolor="#ffffff"
     bordercolor="#666666"
     borderopacity="1.0"
     inkscape:pageopacity="0.0"
     inkscape:pageshadow="2"
     inkscape:zoom="3.959798"
     inkscape:cx="133.08096"
     inkscape:cy="45.436037"
     inkscape:document-units="mm"
     inkscape:current-layer="g3721-5-9-4"
     showgrid="false"
     inkscape:window-width="1920"
     inkscape:window-height="1001"
     inkscape:window-x="756"
     inkscape:window-y="1431"
     inkscape:window-maximized="1" />
  <metadata
     id="metadata10163">
    <rdf:RDF>
      <cc:Work
         rdf:about="">
        <dc:format>image/svg+xml</dc:format>
        <dc:type
           rdf:resource="http://purl.org/dc/dcmitype/StillImage" />
        <dc:title />
      </cc:Work>
    </rdf:RDF>
  </metadata>
  <g
     inkscape:label="Layer 1"
     inkscape:groupmode="layer"
     id="layer1"
     transform="translate(82.531,-140.25142)">
    <a
       transform="translate(-162.50006,-91.170668)"
       id="a4906-4-6">
      <g
         aria-label="TE     H+DATA HUB  "
         transform="matrix(0.46177192,0,0,0.51514962,-21.72899,24.800527)"
         style="font-style:normal;font-weight:normal;font-size:40px;line-height:1.25;font-family:sans-serif;letter-spacing:0px;word-spacing:0px;fill:#000000;fill-opacity:1;stroke:none"
         id="flowRoot4329-8-4">
        <path
           d="m 238.20312,402.12337 v 6.32812 h -4.88281 v 25.29297 h -8.22265 v -25.29297 h -4.86329 v -6.32812 z"
           style="fill:#333333"
           id="path10785" />
        <path
           d="m 240.07812,402.12337 h 13.71094 v 6.32812 h -5.48828 v 5.9961 h 5.13672 v 6.01562 h -5.13672 v 6.95313 h 6.03516 v 6.32812 h -14.25782 z"
           style="fill:#333333"
           id="path10787" />
        <path
           d="m 310.78125,402.12337 v 31.62109 h -8.22266 v -13.28125 h -2.46093 v 13.28125 H 291.875 v -31.62109 h 8.22266 v 11.30859 h 2.46093 v -11.30859 z"
           style="fill:#333333"
           id="path10789" />
        <path
           d="m 313.67187,415.5804 h 7.01172 v -7.03125 h 4.76563 v 7.03125 H 332.5 v 4.76562 h -7.05078 v 6.99219 h -4.76563 v -6.99219 h -7.01172 z"
           style="fill:#333333"
           id="path10791" />
        <path
           d="m 335.39062,402.12337 h 6.15235 q 5.95703,0 8.04687,0.54687 2.10938,0.54688 3.20313,1.79688 1.09375,1.25 1.36719,2.79297 0.27343,1.52343 0.27343,6.01562 v 11.07422 q 0,4.25781 -0.41015,5.70313 -0.39063,1.42578 -1.38672,2.24609 -0.9961,0.80078 -2.46094,1.13281 -1.46484,0.3125 -4.41406,0.3125 h -10.3711 z m 8.22266,5.41015 v 20.80079 q 1.77734,0 2.1875,-0.70313 0.41016,-0.72266 0.41016,-3.88672 v -12.28515 q 0,-2.14844 -0.13672,-2.75391 -0.13672,-0.60547 -0.625,-0.87891 -0.48828,-0.29297 -1.83594,-0.29297 z"
           style="fill:#37c871"
           id="path10793" />
        <path
           d="m 371.69922,402.12337 4.70703,31.62109 h -8.41797 l -0.41016,-5.68359 h -2.94921 l -0.48829,5.68359 H 355.625 l 4.17969,-31.62109 z m -4.35547,20.33203 q -0.625,-5.37109 -1.25,-13.26172 -1.25,9.0625 -1.5625,13.26172 z"
           style="fill:#37c871"
           id="path10795" />
        <path
           d="m 392.1875,402.12337 v 6.32812 h -4.88281 v 25.29297 h -8.22266 v -25.29297 h -4.86328 v -6.32812 z"
           style="fill:#37c871"
           id="path10797" />
        <path
           d="m 406.69922,402.12337 4.70703,31.62109 h -8.41797 l -0.41016,-5.68359 h -2.94921 l -0.48829,5.68359 H 390.625 l 4.17969,-31.62109 z m -4.35547,20.33203 q -0.625,-5.37109 -1.25,-13.26172 -1.25,9.0625 -1.5625,13.26172 z"
           style="fill:#37c871"
           id="path10799" />
        <path
           d="m 438.75,402.12337 v 31.62109 h -8.22266 v -13.28125 h -2.46093 v 13.28125 h -8.22266 v -31.62109 h 8.22266 v 11.30859 h 2.46093 v -11.30859 z"
           style="fill:#333333"
           id="path10801" />
        <path
           d="m 460.72266,402.12337 v 21.13281 q 0,3.59375 -0.23438,5.05859 -0.23437,1.44532 -1.38672,2.98829 -1.15234,1.52343 -3.04687,2.32421 -1.875,0.78125 -4.4336,0.78125 -2.83203,0 -5,-0.9375 -2.16797,-0.9375 -3.24218,-2.4414 -1.07422,-1.50391 -1.26954,-3.16406 -0.19531,-1.67969 -0.19531,-7.03125 v -18.71094 h 8.22266 v 23.71094 q 0,2.07031 0.21484,2.65625 0.23438,0.5664 0.91797,0.5664 0.78125,0 0.99609,-0.625 0.23438,-0.64453 0.23438,-3.00781 v -23.30078 z"
           style="fill:#333333"
           id="path10803" />
        <path
           d="m 463.90625,402.12337 h 8.20312 q 3.88672,0 5.87891,0.60547 2.01172,0.60547 3.24219,2.46093 1.23047,1.83594 1.23047,5.9375 0,2.77344 -0.87891,3.86719 -0.85937,1.09375 -3.41797,1.67969 2.85156,0.64453 3.86719,2.14844 1.01562,1.48437 1.01562,4.57031 v 2.92969 q 0,3.20312 -0.74218,4.74609 -0.72266,1.54297 -2.32422,2.10938 -1.60156,0.5664 -6.5625,0.5664 h -9.51172 z m 8.22266,5.41015 v 7.03125 q 0.52734,-0.0195 0.82031,-0.0195 1.21094,0 1.54297,-0.58593 0.33203,-0.60547 0.33203,-3.41797 0,-1.48438 -0.27344,-2.07032 -0.27344,-0.60546 -0.72266,-0.76171 -0.42968,-0.15625 -1.69921,-0.17579 z m 0,11.95313 v 8.84766 q 1.73828,-0.0586 2.20703,-0.54688 0.48828,-0.48828 0.48828,-2.40234 v -2.94922 q 0,-2.03125 -0.42969,-2.46094 -0.42969,-0.42969 -2.26562,-0.48828 z"
           style="fill:#333333"
           id="path10805" />
      </g>
    </a>
    <g
       style="fill:#333333;fill-opacity:1"
       id="g3721-5-9-4"
       inkscape:label="TDH_07082018"
       transform="matrix(0.05157657,0,0,-0.05438459,-67.656028,157.18911)">
      <g
         style="fill:#37c871;fill-opacity:1"
         id="g3723-1-4-6">
        <g
           style="fill:#37c871;fill-opacity:1"
           id="g3725-1-1-6"
           clip-path="url(#clipPath3729-2-3-7)">
          <g
             style="fill:#37c871;fill-opacity:1"
             id="g3731-8-5-4"
             transform="translate(154.6984,99.3972)">
            <path
               d="m 0,0 c -31.059,0 -56.325,25.268 -56.325,56.324 0,31.057 25.266,56.324 56.325,56.324 22.687,0 43.058,-13.502 51.896,-34.397 L 39.139,72.855 C 32.474,88.614 17.109,98.797 0,98.797 c -23.42,0 -42.474,-19.053 -42.474,-42.473 0,-23.42 19.054,-42.472 42.474,-42.472 16.773,0 32.016,9.906 38.832,25.237 L 51.489,33.462 C 42.453,13.135 22.242,0 0,0"
               style="fill:#37c871;fill-opacity:1;fill-rule:nonzero;stroke:none"
               id="path3733-7-0-0"
               inkscape:connector-curvature="0" />
          </g>
        </g>
      </g>
      <g
         style="fill:#333333;fill-opacity:1"
         id="g3735-7-8-2">
        <g
           style="fill:#333333;fill-opacity:1"
           id="g3737-3-4-1">
          <g
             style="fill:#333333;fill-opacity:1"
             id="g3743-1-6-7">
            <g
               style="fill:#333333;fill-opacity:1"
               id="g3745-2-2-2">
              <path
                 d="M 308.502,162.647 H 182.183 c -3.07,11.673 -13.713,20.308 -26.337,20.308 v 0 c -15.017,0 -27.233,-12.217 -27.233,-27.233 v 0 c 0,-15.017 12.216,-27.234 27.233,-27.234 v 0 c 12.624,0 23.267,8.635 26.337,20.308 v 0 h 126.319 c 3.073,-11.673 13.717,-20.308 26.341,-20.308 v 0 c 15.017,0 27.233,12.217 27.233,27.234 v 0 c 0,15.016 -12.216,27.233 -27.233,27.233 v 0 c -12.624,0 -23.268,-8.635 -26.341,-20.308 m 12.957,-6.925 c 0,7.379 6.004,13.382 13.384,13.382 v 0 c 7.377,0 13.381,-6.003 13.381,-13.382 v 0 c 0,-7.38 -6.004,-13.383 -13.381,-13.383 v 0 c -7.38,0 -13.384,6.003 -13.384,13.383 m -178.995,0 c 0,7.379 6.004,13.382 13.382,13.382 v 0 c 7.378,0 13.382,-6.003 13.382,-13.382 v 0 c 0,-7.38 -6.004,-13.383 -13.382,-13.383 v 0 c -7.378,0 -13.382,6.003 -13.382,13.383"
                 style="fill:#333333;fill-opacity:1;stroke:none"
                 id="path3757-8-3-9"
                 inkscape:connector-curvature="0" />
            </g>
          </g>
        </g>
      </g>
      <g
         style="fill:#333333;fill-opacity:1"
         id="g3759-6-6-0">
        <g
           style="fill:#333333;fill-opacity:1"
           id="g3761-6-7-4">
          <g
             style="fill:#333333;fill-opacity:1"
             id="g3767-9-33-7">
            <g
               style="fill:#333333;fill-opacity:1"
               id="g3769-4-6-1">
              <path
                 d="m 352.767,219.985 h -32.158 l -26.742,-26.742 h -61.14 c -14.299,29.312 -43.988,48.006 -76.881,48.006 v 0 c -46.664,0 -84.722,-37.565 -85.514,-84.044 v 0 l -0.013,-1.483 h 0.013 c 0.792,-46.48 38.85,-84.045 85.514,-84.045 v 0 c 32.893,0 62.582,18.696 76.881,48.007 v 0 h 61.14 l 26.742,-26.743 h 32.282 c 2.925,-11.884 13.667,-20.728 26.442,-20.728 v 0 c 15.016,0 27.234,12.218 27.234,27.234 v 0 c 0,15.017 -12.218,27.234 -27.234,27.234 v 0 c -12.471,0 -23.005,-8.43 -26.22,-19.888 v 0 h -26.765 l -26.742,26.742 H 223.68 l -1.787,-4.228 C 210.644,102.712 184.719,85.528 155.846,85.528 v 0 c -39.273,0 -71.271,31.754 -71.672,70.934 v 0 c 0.401,39.183 32.399,70.936 71.672,70.936 v 0 c 28.873,0 54.798,-17.184 66.047,-43.779 v 0 l 1.789,-4.228 h 75.924 l 26.742,26.742 h 26.919 c 3.389,-11.184 13.79,-19.352 26.066,-19.352 v 0 c 15.016,0 27.234,12.218 27.234,27.235 v 0 c 0,15.017 -12.218,27.233 -27.234,27.233 v 0 c -12.966,0 -23.837,-9.109 -26.566,-21.264 m 13.185,-5.969 c 0,7.379 6.004,13.382 13.381,13.382 v 0 c 7.378,0 13.382,-6.003 13.382,-13.382 v 0 c 0,-7.379 -6.004,-13.384 -13.382,-13.384 v 0 c -7.377,0 -13.381,6.005 -13.381,13.384 m 0,-114.569 c 0,7.379 6.004,13.382 13.381,13.382 v 0 c 7.378,0 13.382,-6.003 13.382,-13.382 v 0 c 0,-7.378 -6.004,-13.382 -13.382,-13.382 v 0 c -7.377,0 -13.381,6.004 -13.381,13.382"
                 style="fill:#333333;fill-opacity:1;stroke:none"
                 id="path3781-9-7-2"
                 inkscape:connector-curvature="0" />
            </g>
          </g>
        </g>
      </g>
      <g
         style="fill:#333333;fill-opacity:1"
         id="g3783-5-5-6">
        <g
           style="fill:#333333;fill-opacity:1"
           id="g3785-9-8-0"
           clip-path="url(#clipPath3789-0-0-0)">
          <g
             style="fill:#333333;fill-opacity:1"
             id="g3791-1-5-2"
             transform="translate(263.924,251.6023)">
            <path
               d="m 0,0 c -4.153,4.124 -8.144,8.085 -12.314,12.226 1.779,3.154 3.664,6.496 5.598,9.925 -15.14,12.644 -31.469,22.543 -50.051,28.751 -2.023,-3.414 -3.942,-6.651 -5.817,-9.814 -5.609,1.538 -10.938,2.998 -16.807,4.606 v 11.213 c -17.05,4.115 -43.171,3.731 -57.691,-0.091 0,-0.862 0.001,-1.813 0,-2.764 -0.001,-2.241 -0.026,-4.483 0.008,-6.723 0.017,-1.196 -0.239,-1.955 -1.628,-2.289 -4.997,-1.204 -9.959,-2.555 -15.176,-3.912 -1.908,3.247 -3.855,6.56 -5.772,9.822 -18.707,-6.6 -35.261,-16.115 -50.033,-28.851 2.022,-3.573 3.875,-6.847 5.367,-9.483 -4.194,-4.403 -8.067,-8.47 -12.059,-12.662 -3.167,1.839 -6.426,3.732 -9.863,5.728 -12.733,-14.977 -22.407,-31.443 -28.874,-50.068 3.417,-2.009 6.731,-3.959 9.919,-5.833 -1.355,-4.995 -2.78,-9.647 -3.825,-14.384 -0.441,-2.001 -1.294,-2.497 -3.141,-2.426 -2.986,0.114 -5.979,0.03 -8.861,0.03 -3.863,-15.203 -3.868,-43.08 -0.042,-57.756 0.961,-0.049 2.008,-0.137 3.055,-0.149 2.241,-0.026 4.483,-0.03 6.724,-0.008 1.102,0.011 1.793,-0.318 2.095,-1.524 1.249,-4.987 2.583,-9.954 3.953,-15.19 -3.214,-1.884 -6.537,-3.831 -9.875,-5.786 6.534,-18.665 16.144,-35.19 28.852,-50.061 3.545,2.032 6.88,3.942 9.461,5.42 4.451,-4.234 8.519,-8.102 12.672,-12.053 -1.802,-3.194 -3.651,-6.469 -5.568,-9.867 15.034,-12.735 31.472,-22.436 50.006,-28.841 2.056,3.49 3.966,6.734 5.85,9.931 5.669,-1.565 11.079,-3.059 16.796,-4.638 v -11.16 c 14.372,-4.003 48.081,-3.86 57.733,0.23 0,3.029 0.051,6.141 -0.022,9.251 -0.033,1.423 0.488,2.079 1.899,2.393 3.225,0.72 6.419,1.581 9.614,2.433 1.747,0.466 3.468,1.027 5.228,1.554 2.046,-3.486 3.948,-6.727 5.796,-9.876 15.533,4.611 44.345,21.465 49.888,29.14 -1.835,3.213 -3.7,6.48 -5.397,9.451 4.262,4.222 8.255,8.18 12.39,12.277 3.03,-1.761 6.291,-3.656 9.491,-5.516 7.42,6.591 20.676,28.461 26.281,42.1 l -12.685,12.684 h -2.967 -43.089 c -16.232,-29.717 -47.801,-50.268 -85.047,-50.464 -54.569,-0.288 -98.54,44.103 -97.468,99.688 0.955,49.548 41.322,93.947 97.075,94.529 35.505,-0.235 66.767,-18.873 83.721,-47.674 h 49.503 l 10.538,10.538 C 29.09,-20.714 20.602,-6.931 9.838,5.656 6.327,3.638 3.057,1.757 0,0"
               style="fill:#333333;fill-opacity:1;fill-rule:nonzero;stroke:none"
               id="path3793-7-89-3"
               inkscape:connector-curvature="0" />
          </g>
        </g>
      </g>
    </g>
  </g>
</svg>
