<svg id="Ebene_1" data-name="Ebene 1" xmlns="http://www.w3.org/2000/svg" viewBox="0 0 466.19 90.65"><defs><style>.cls-1{fill:#333;}.cls-2{fill:#00adef;}</style></defs><title>Logo MB.io</title><rect class="cls-1" x="241.97" y="46" width="12.5" height="2.89"/><path class="cls-1" d="M34.06,28.45l-1.12,29V58c0,2.47.72,3,4.64,3.25v1.35c-2.85-.23-4-.29-5.54-.29s-2.68.06-5.59.29V61.24c3.91-.28,4.47-.73,4.58-3.75L32.21,30v-.34c0-2.57-.78-3.13-4.65-3.35v-1.4c2.19.17,3,.22,4.6.22a41.74,41.74,0,0,0,5.31-.28L47.88,53.18,58.45,24.87a51.14,51.14,0,0,0,5.37.28c1.4,0,2.3,0,4.42-.22v1.4c-3.8.22-4.64.78-4.64,3.3V30l.61,27.47c.06,3,.56,3.47,4.59,3.75v1.35a64.12,64.12,0,0,0-7-.45,64.27,64.27,0,0,0-7,.45V61.24c3.81-.22,4.65-.84,4.65-3.47v-.28l-.51-29-9.23,25-.67,1.85-.78,2.07-.73,2.13-.61,1.84h-.84l-.62-1.79-.78-2.18L43.9,55.2l-.67-2Z"/><path class="cls-1" d="M83.34,61.18c-5.09,0-7.32-3.91-7.38-12.64H92.63c-.11-8.62-3.63-13.2-10.24-13.2s-10.91,5.42-10.91,14S75.68,63,82.9,63c5.48,0,9.06-3.41,9.79-9.17H90.45c-.67,4.75-3.13,7.32-7.11,7.32M76.07,46.53c.56-6.44,2.69-9.74,6.27-9.74s5.48,3.13,5.82,9.74Z"/><path class="cls-1" d="M96,37.41v-1a34.67,34.67,0,0,0,7.39-1.29c.28,2.07.39,3,.51,4.65v.61c1.22-3.19,3.63-5,6.54-5s4.87,1.84,4.87,4.53a2.39,2.39,0,0,1-2.35,2.68,2.06,2.06,0,0,1-2.29-1.9,3,3,0,0,1,.11-.56l.11-.56V39c0-.78-.67-1.34-1.68-1.34-2.91,0-4.76,3.52-4.76,9.06V58.44c0,2.41.56,2.86,4,3v1.13a57.43,57.43,0,0,0-12.48,0V61.46c3.41-.16,4-.61,4-3V40.15c-.06-2.41-.34-2.69-3.25-2.74Z"/><path class="cls-1" d="M136.67,34.83v9.23h-1.23c-1-4.86-3.08-7.21-6.49-7.21-4.2,0-6.66,4.53-6.66,12.53,0,7.83,2.18,11.8,6.49,11.8q5.21,0,6.21-7.38h2.29c-.72,6-3.91,9.23-8.95,9.23-6.49,0-10.91-5.48-10.91-13.65,0-8.34,4.48-14,11.08-14a7.23,7.23,0,0,1,5.71,2.35l1.51-2.86Z"/><path class="cls-1" d="M153.13,61.18c-5.09,0-7.33-3.91-7.38-12.64h16.67c-.11-8.62-3.64-13.2-10.24-13.2s-10.91,5.42-10.91,14S145.47,63,152.68,63c5.49,0,9.07-3.41,9.8-9.17h-2.24c-.67,4.75-3.13,7.32-7.11,7.32m-7.27-14.65c.56-6.44,2.68-9.74,6.27-9.74s5.48,3.13,5.81,9.74Z"/><path class="cls-1" d="M188.43,56.77V24.46A52.91,52.91,0,0,1,180,26v1c3.52,0,4,.39,4,3.31V40c-2.07-3.36-3.69-4.37-6.71-4.37-6,0-10.19,5.65-10.19,13.71s4.25,13.71,10.35,13.71c3.19,0,5.37-1.46,6.94-4.59a20.55,20.55,0,0,0,.78,4.47,28.25,28.25,0,0,1,6.55-1.34l.84-.11v-1c-3.75-.11-4.09-.39-4.09-3.8m-10.51,4.75c-4,0-6.16-4.19-6.16-12.2s2-12.08,6-12.08S184,41.49,184,49.71c0,7.78-2.08,11.81-6.1,11.81"/><path class="cls-1" d="M206.5,61.18c-5.09,0-7.33-3.91-7.38-12.64h16.67c-.12-8.62-3.64-13.2-10.24-13.2s-10.91,5.42-10.91,14S198.83,63,206.05,63c5.49,0,9.07-3.41,9.79-9.17h-2.23c-.67,4.75-3.14,7.32-7.11,7.32m-7.27-14.65c.56-6.44,2.68-9.74,6.26-9.74s5.49,3.13,5.82,9.74Z"/><path class="cls-1" d="M220.54,63.09V53.74l1.23-.05c1,5.09,3.35,7.55,7.27,7.55,3.3,0,5.76-2.18,5.76-5,0-1.9-1.06-3.18-3.8-4.42l-2.13-.94-2.57-1.18c-4.08-1.9-5.37-3.47-5.37-6.72,0-4.42,3.47-7.43,8.39-7.43A9.38,9.38,0,0,1,235,37.29L236,35h1v8.67H235.7c-.5-4.47-2.35-6.6-5.87-6.6-3,0-5.26,2-5.26,4.65,0,2.23.83,3,5.93,5.2l2.35,1c4.25,1.85,5.76,3.64,5.76,6.94,0,4.7-3.75,8.06-9,8.06a10,10,0,0,1-6.71-2.35l-1.35,2.52Z"/><path class="cls-1" d="M280.91,34.22a8.8,8.8,0,0,0-3.36-7.11c-1.9-1.4-4.08-2-7.72-2H255.12v1.4c4,.22,4.58.67,4.58,3.69V57.33c0,3-.44,3.41-4.58,3.74v1.34h14.15c4.14,0,6.38-.5,8.73-1.95a10.53,10.53,0,0,0,4.64-8.73,9.3,9.3,0,0,0-3.46-7.44,9.74,9.74,0,0,0-4.42-1.79c4-1.51,6.15-4.37,6.15-8.28m-16.5-7.39h4.75c4.7,0,6.77,2.3,6.77,7.5a8.54,8.54,0,0,1-1.85,5.87c-1.22,1.4-2.74,1.85-5.87,1.85h-3.8Zm5.31,17c3,0,4.65.51,5.93,1.8s2,3.69,2,6.37c0,5.6-2.79,8.73-7.77,8.73h-2c-3,0-3.47-.45-3.47-2.91v-14Z"/><path class="cls-1" d="M299.05,61.18c-5.09,0-7.33-3.91-7.38-12.64h16.67c-.11-8.62-3.64-13.2-10.24-13.2s-10.91,5.42-10.91,14S291.39,63,298.6,63c5.49,0,9.07-3.41,9.8-9.17h-2.24c-.67,4.75-3.14,7.32-7.11,7.32m-7.27-14.65c.56-6.44,2.68-9.74,6.27-9.74s5.48,3.13,5.81,9.74Z"/><path class="cls-1" d="M311.3,37.63v-1A34.9,34.9,0,0,0,318.69,35a31,31,0,0,1,.56,4.87c2-3,4.31-4.37,7.55-4.37A7.75,7.75,0,0,1,334.19,40a12.76,12.76,0,0,1,.84,5V58.44c0,2.41.56,2.86,4,3v1.12a54.28,54.28,0,0,0-6.1-.34,52.9,52.9,0,0,0-6.1.34V61.47c3-.12,3.75-.68,3.75-2.91V44.85c0-4.87-1.46-6.83-5-6.83-3.81,0-5.82,2.41-5.82,7V58.56c0,2.23.72,2.79,3.63,2.91v1.12a52.64,52.64,0,0,0-6-.34,53.21,53.21,0,0,0-6,.34V61.47c3.41-.17,4-.62,4-3V40.32c-.06-2.3-.39-2.63-3.19-2.63-.17,0-.45-.06-.73-.06"/><path class="cls-1" d="M341.17,62.42l15.17-25h-6.89c-3.63,0-4.53.79-6.54,5.82h-1.12L343.07,36h19.25L347.1,61h6.55c3.8,0,5.37-1.51,7.05-6.6h1.18l-1.46,8.06Z"/><polygon class="cls-2" points="386.19 55.29 380.91 60.69 380.91 62.76 386.19 62.76 386.19 55.29"/><polygon class="cls-2" points="397.11 32.92 402.39 27.52 402.39 25.45 397.11 25.45 397.11 32.92"/><polygon class="cls-2" points="397.11 62.71 397.11 62.76 402.39 62.76 402.39 62.71 402.39 34.53 397.11 39.93 397.11 62.71"/><path class="cls-2" d="M443.24,32.87l-3.75,3.88a14.05,14.05,0,1,1-4.74-4.65l3.75-3.88a19.38,19.38,0,1,0,4.74,4.65"/></svg>